<?xml version="1.0" encoding="UTF-8"?>
<svg id="Capa_2"  width="70" height="70" data-name="Capa 2" xmlns="http://www.w3.org/2000/svg" xmlns:xlink="http://www.w3.org/1999/xlink" viewBox="0 0 1000 1109.51">
  <defs>
    <style>
      .cls-1 {
        fill: url(#Degradado_sin_nombre_31);
      }

      .cls-2 {
        fill: #22577a;
      }
    </style>
    <linearGradient id="Degradado_sin_nombre_31" data-name="Degradado sin nombre 31" x1="178.04" y1="789.91" x2="821.96" y2="145.99" gradientUnits="userSpaceOnUse">
      <stop offset=".2" stop-color="#22577a"/>
      <stop offset="1" stop-color="#80ed99"/>
    </linearGradient>
  </defs>
  <g id="Capa_1-2" data-name="Capa 1">
    <g>
      <g>
        <path class="cls-1" d="M480.53,720.21c0-46.01-23.31-88.78-61.43-113.87-.26-1.54-.54-3.07-.83-4.59,39.16-54.36,62.27-121.02,62.27-192.98,0-.85,0-1.72-.03-2.56,0-.24-.04-.48-.06-.72-1.02-30.46-16.07-57.42-38.91-74.58,22.69-17.04,37.73-43.76,38.92-73.97,1.26-31.95-23.45-60.64-55.39-62.21-33.06-1.62-60.56,24.42-61.31,56.96-.23,10.04,7.35,19.66,17.33,20.71,11.74,1.24,21.65-7.97,21.58-19.47-.04-6.92,3.24-13.59,9.39-16.78,14.74-7.66,29.54,2.92,29.54,16.89,0,32.2-26.2,58.4-58.4,58.4-10.64,0-20.62,2.87-29.22,7.87-20.04-49.99-68.86-85.46-125.86-85.73-10.44-.05-19.52,7.97-20.07,18.4-.6,11.23,8.33,20.53,19.44,20.53,53.67,0,97.33,43.66,97.33,97.33,0,31.82,25.58,57.77,57.26,58.38,9.93,.19,19.45-7.46,20.49-17.34,1.24-11.74-7.97-21.65-19.47-21.58-6.92,.04-13.59-3.24-16.78-9.39-7.66-14.74,2.92-29.54,16.89-29.54,32.2,0,58.4,26.2,58.4,58.4,0,47.99-34.92,87.95-80.69,95.87,1.84-5.7,2.83-11.76,2.83-18.01,0-31.75-25.48-57.67-57.06-58.38-10.8-.24-20.55,8.21-20.79,19-.25,10.92,8.5,19.85,19.35,19.91,7.4,.04,14.44,3.78,17.54,10.49,4.82,10.45,.61,21.21-7.92,25.96-66.14-11.23-119.77-59.65-138.55-122.91,9.99-18.25,28.91-29.89,49.98-30.31,10.27-.21,19.45,7.11,20.54,17.32,1.26,11.75-8.01,21.71-19.54,21.6-6.9-.07-13.53,3.22-16.7,9.34-7.66,14.81,2.89,29.59,16.89,29.59,32.39,0,58.71-26.51,58.39-58.98-.33-33.86-30.03-59.54-63.84-57.66-19.55,1.08-37.86,7.96-52.94,19.26,.01-75.4,28.77-144.21,75.88-196.06,25.39,17.99,40.73,47.02,40.91,78.77,.06,10.59,8.26,19.68,18.84,20.01,11.03,.35,20.09-8.5,20.09-19.46,0-42.25-19.2-81.14-51.44-106.67,45.63-38.38,103.12-63.1,166.11-67.72-9.31,43.8-48.17,76.81-94.64,77.07-10.59,.06-19.68,8.26-20.02,18.84-.35,11.03,8.5,20.09,19.46,20.09,22.82,0,44.34-5.67,63.26-15.63,8.87,20.31,28.96,34.63,52.39,35.09,10.77,.21,20.22-8,20.59-18.76,.38-11.07-8.47-20.16-19.45-20.16s-19.47-8.73-19.47-19.47c0-.76,.06-1.5,.14-2.25,23.97-24.57,38.79-58.12,38.79-95.08h0c0-10.75-8.71-19.47-19.46-19.47h0c-89.96,0-171.63,36.1-231.34,94.55-1.33,1.02-2.55,2.2-3.6,3.57-59.28,59.83-95.96,142.1-95.96,232.78,0,17.81,2.2,35.12,6.32,51.67,.11,.56,.25,1.11,.41,1.66,.02,.06,.03,.12,.05,.18,.01,.05,.02,.1,.04,.14,21.41,82.66,91.08,146.09,177.02,158.31,.3,.05,.61,.09,.91,.13,9.61,1.32,19.41,2.02,29.38,2.02,27.27,0,52.68-8.08,74-21.94-41.95,98.22-136.25,168.93-247.63,176.9-5.66-5.88-13.74-9.41-22.65-8.92-14.77,.8-26.87,13-27.55,27.78-.77,16.75,12.58,30.58,29.17,30.58,9.01,0,17.07-4.09,22.42-10.51,82.16-5.53,156.2-41.16,211.14-95.95-.28,46.64-33.53,85.61-77.58,94.71-5.34-4.91-12.48-7.88-20.34-7.71-15.18,.31-27.87,12.67-28.55,27.84-.76,16.74,12.59,30.55,29.17,30.55,9.59,0,18.07-4.64,23.4-11.78,58.22-10.12,103.86-57.31,111.64-116.29,13.17,16.86,20.68,37.88,20.68,59.94,0,25.7-16.7,47.56-39.81,55.34-5.8-4.79-13.48-7.39-21.77-6.51-13.45,1.42-24.34,12.27-25.83,25.7-1.95,17.61,11.79,32.52,29.01,32.52,10.03,0,18.87-5.06,24.13-12.76,42.03-10.76,73.2-48.95,73.2-94.29Z"/>
        <circle class="cls-1" cx="500" cy="827.26" r="29.2"/>
        <path class="cls-1" d="M851.99,691.05c-8.91-.48-16.99,3.05-22.65,8.92-111.38-7.96-205.68-78.68-247.63-176.9,21.33,13.85,46.73,21.94,74,21.94,9.97,0,19.77-.7,29.38-2.02,.31-.04,.61-.08,.91-.13,85.93-12.22,155.6-75.64,177.01-158.3,.2-.66,.37-1.33,.5-2.01,4.11-16.55,6.31-33.85,6.31-51.65,0-90.68-36.68-172.95-95.96-232.79-1.05-1.36-2.27-2.55-3.6-3.56C710.57,36.1,628.89,0,538.93,0h0c-10.75,0-19.46,8.71-19.46,19.46h0c0,36.96,14.81,70.51,38.79,95.08,.09,.74,.14,1.49,.14,2.25,0,10.83-8.9,19.63-19.77,19.46-6.8-.11-13.32,3.15-16.49,9.17-7.84,14.87,2.74,29.77,16.8,29.77,23.92,0,44.52-14.46,53.53-35.1,18.69,9.84,39.91,15.49,62.42,15.63,10.51,.06,19.71-7.9,20.27-18.4,.6-11.23-8.33-20.53-19.44-20.53-46.72,0-85.86-33.09-95.21-77.07,62.99,4.63,120.48,29.34,166.11,67.72-32.03,25.37-51.19,63.93-51.44,105.87-.06,10.5,7.91,19.68,18.39,20.24,11.23,.6,20.53-8.33,20.53-19.44,0-31.96,15.38-61.23,40.91-79.32,47.1,51.85,75.86,120.66,75.88,196.06-15.1-11.32-33.43-18.19-53-19.27-32.92-1.8-62.14,22.46-63.72,55.39s24.45,60.5,56.97,61.24c10.04,.23,19.66-7.35,20.71-17.33,1.24-11.74-7.97-21.65-19.47-21.58-6.92,.04-13.59-3.24-16.78-9.39-7.66-14.74,2.92-29.54,16.89-29.54,21.55,0,41,11.73,51.18,30.32-18.79,63.27-72.42,111.69-138.55,122.92-8.53-4.75-12.74-15.51-7.92-25.96,3.1-6.71,10.15-10.45,17.54-10.49,10.85-.06,19.6-9,19.35-19.91s-10-19.24-20.79-19c-31.59,.71-57.06,26.63-57.06,58.38,0,6.25,.99,12.31,2.83,18.01-45.76-7.92-80.69-47.88-80.69-95.87,0-31.8,25.55-57.74,57.19-58.38,10.27-.21,19.46,7.1,20.55,17.31,1.26,11.75-8.01,21.71-19.54,21.6-6.9-.07-13.53,3.22-16.7,9.34-7.66,14.81,2.89,29.59,16.89,29.59,32.2,0,58.4-26.2,58.4-58.4,0-53.45,43.31-96.97,96.67-97.32,10.62-.07,19.77-8.22,20.11-18.84,.35-11.03-8.5-20.09-19.46-20.09-57.28,0-106.39,35.55-126.5,85.73-8.6-4.99-18.58-7.87-29.22-7.87-31.8,0-57.74-25.55-58.38-57.19-.21-10.27,7.1-19.46,17.31-20.55,11.75-1.26,21.71,8.01,21.6,19.54-.07,6.9,3.22,13.53,9.34,16.7,14.81,7.66,29.59-2.89,29.59-16.89,0-32.43-26.58-58.77-59.1-58.39-33.19,.39-58.93,29.11-57.62,62.28,1.19,30.21,16.23,56.93,38.92,73.97-22.84,17.16-37.9,44.12-38.91,74.58-.02,.24-.05,.47-.06,.71-.02,.85-.03,1.72-.03,2.56,0,71.96,23.1,138.62,62.27,192.98-.29,1.52-.57,3.05-.83,4.59-38.12,25.09-61.43,67.86-61.43,113.87s31.16,83.53,73.2,94.29c5.37,7.86,14.47,12.97,24.76,12.76,15.16-.32,27.83-12.64,28.54-27.79,.79-16.76-12.57-30.6-29.16-30.6-7.06,0-13.54,2.51-18.59,6.68-23.11-7.78-39.81-29.64-39.81-55.34,0-22.06,7.51-43.08,20.68-59.94,7.79,58.98,53.42,106.16,111.64,116.29,5.53,7.42,14.47,12.14,24.52,11.76,14.96-.56,27.33-12.79,28.04-27.74,.8-16.78-12.56-30.63-29.16-30.63-7.62,0-14.53,2.94-19.73,7.72-44.05-9.11-77.3-48.07-77.58-94.71,54.94,54.79,128.98,90.42,211.14,95.95,5.36,6.42,13.41,10.51,22.42,10.51,16.58,0,29.94-13.82,29.17-30.58-.68-14.78-12.77-26.97-27.55-27.78Z"/>
      </g>
      <g>
        <path class="cls-2" d="M0,912.14c0-8.09,6.4-14.49,14.49-14.49H60.22c16.75,0,29.74,4.71,38.39,13.36,7.34,7.34,11.29,17.69,11.29,30.11v.38c0,20.7-10.35,33.5-26.35,40.08l20.14,24.47c2.82,3.58,4.7,6.59,4.7,11.1,0,8.09-6.77,13.36-13.74,13.36-6.59,0-10.92-3.2-14.3-7.53l-28.23-35.76H28.98v28.79c0,8.09-6.4,14.49-14.49,14.49s-14.49-6.4-14.49-14.49v-103.88Zm58.34,49.5c14.12,0,22.21-7.53,22.21-18.63v-.38c0-12.42-8.66-18.82-22.77-18.82H28.98v37.83h29.36Z"/>
        <path class="cls-2" d="M125.65,1014.89v-102.75c0-8.09,6.4-14.49,14.49-14.49h73.02c7.15,0,12.98,5.83,12.98,12.99s-5.83,12.8-12.98,12.8h-58.72v26.72h50.25c7.15,0,12.99,5.83,12.99,12.99s-5.83,12.8-12.99,12.8h-50.25v27.67h59.66c7.15,0,12.99,5.83,12.99,12.99s-5.83,12.8-12.99,12.8h-73.96c-8.09,0-14.49-6.4-14.49-14.49Z"/>
        <path class="cls-2" d="M231.27,963.89v-.38c0-37.45,28.23-68.13,68.69-68.13,19.76,0,33.12,5.27,44.04,13.36,3.01,2.26,5.65,6.4,5.65,11.48,0,7.9-6.4,14.11-14.3,14.11-3.95,0-6.59-1.51-8.66-2.82-8.09-6.02-16.56-9.41-26.91-9.41-22.21,0-38.2,18.44-38.2,41.03v.38c0,22.58,15.62,41.4,38.2,41.4,12.23,0,20.33-3.76,28.61-10.35,2.26-1.88,5.27-3.2,8.66-3.2,7.34,0,13.55,6.02,13.55,13.36,0,4.52-2.26,8.09-4.89,10.35-11.86,10.35-25.78,16.56-46.86,16.56-38.77,0-67.56-29.92-67.56-67.75Z"/>
        <path class="cls-2" d="M361.06,972.93v-61.92c0-8.09,6.4-14.49,14.49-14.49s14.49,6.4,14.49,14.49v61.16c0,21.45,10.73,32.56,28.42,32.56s28.42-10.73,28.42-31.62v-62.11c0-8.09,6.4-14.49,14.49-14.49s14.49,6.4,14.49,14.49v60.98c0,39.9-22.4,59.47-57.78,59.47s-57.02-19.76-57.02-58.53Z"/>
        <path class="cls-2" d="M495.27,912.14c0-8.09,6.4-14.49,14.49-14.49h45.73c16.75,0,29.74,4.71,38.39,13.36,7.34,7.34,11.29,17.69,11.29,30.11v.38c0,20.7-10.35,33.5-26.35,40.08l20.14,24.47c2.82,3.58,4.7,6.59,4.7,11.1,0,8.09-6.77,13.36-13.74,13.36-6.59,0-10.92-3.2-14.3-7.53l-28.23-35.76h-23.15v28.79c0,8.09-6.4,14.49-14.49,14.49s-14.49-6.4-14.49-14.49v-103.88Zm58.34,49.5c14.12,0,22.21-7.53,22.21-18.63v-.38c0-12.42-8.66-18.82-22.77-18.82h-28.79v37.83h29.36Z"/>
        <path class="cls-2" d="M617.63,1015.46c-3.2-2.26-5.46-6.4-5.46-10.92,0-7.53,6.02-13.36,13.55-13.36,3.76,0,6.4,1.32,8.28,2.63,9.97,7.34,20.89,11.86,33.69,11.86,11.86,0,19.01-4.7,19.01-12.42v-.38c0-7.34-4.52-11.1-26.54-16.75-26.54-6.78-43.66-14.12-43.66-40.27v-.38c0-23.9,19.2-39.71,46.11-39.71,16,0,29.92,4.14,41.78,11.67,3.2,1.88,6.4,5.83,6.4,11.48,0,7.53-6.02,13.36-13.55,13.36-2.82,0-5.08-.75-7.34-2.07-9.6-5.65-18.63-8.85-27.67-8.85-11.1,0-16.94,5.08-16.94,11.48v.38c0,8.66,5.65,11.48,28.42,17.31,26.72,6.96,41.78,16.56,41.78,39.52v.38c0,26.16-19.95,40.84-48.37,40.84-17.31,0-34.82-5.27-49.5-15.81Z"/>
        <path class="cls-2" d="M730.26,911.01c0-8.09,6.4-14.49,14.49-14.49s14.49,6.4,14.49,14.49v105.01c0,8.09-6.4,14.49-14.49,14.49s-14.49-6.4-14.49-14.49v-105.01Z"/>
        <path class="cls-2" d="M811.68,1019.98l-42.72-102.19c-.94-2.26-1.7-4.52-1.7-6.96,0-8.09,6.4-14.3,14.49-14.3,7.53,0,12.42,4.33,14.68,10.16l32.93,85.25,33.31-86.19c1.88-4.7,6.96-9.22,13.93-9.22,7.9,0,14.3,6.02,14.3,13.93,0,2.26-.75,4.7-1.5,6.4l-43.1,103.13c-3.01,7.15-8.47,11.48-16.37,11.48h-1.88c-7.9,0-13.36-4.33-16.37-11.48Z"/>
        <path class="cls-2" d="M898.56,1014.89v-102.75c0-8.09,6.4-14.49,14.49-14.49h73.02c7.15,0,12.98,5.83,12.98,12.99s-5.83,12.8-12.98,12.8h-58.72v26.72h50.25c7.15,0,12.99,5.83,12.99,12.99s-5.83,12.8-12.99,12.8h-50.25v27.67h59.66c7.15,0,12.99,5.83,12.99,12.99s-5.83,12.8-12.99,12.8h-73.96c-8.09,0-14.49-6.4-14.49-14.49Z"/>
      </g>
      <g>
        <path class="cls-2" d="M103.65,1102.25c-1.13-.81-1.94-2.18-1.94-3.79,0-2.58,2.1-4.6,4.68-4.6,1.37,0,2.26,.4,2.9,.89,4.68,3.71,9.68,5.81,15.81,5.81s10-2.9,10-7.1v-.16c0-4.03-2.26-6.21-12.74-8.63-12.02-2.9-18.79-6.45-18.79-16.86v-.16c0-9.68,8.07-16.37,19.28-16.37,7.1,0,12.82,1.85,17.91,5.24,1.13,.65,2.18,2.02,2.18,3.95,0,2.58-2.1,4.6-4.68,4.6-.97,0-1.78-.24-2.58-.73-4.36-2.82-8.55-4.28-12.98-4.28-5.81,0-9.2,2.98-9.2,6.69v.16c0,4.36,2.58,6.29,13.47,8.87,11.94,2.9,18.07,7.18,18.07,16.53v.16c0,10.57-8.31,16.86-20.16,16.86-7.66,0-14.92-2.42-21.21-7.1Z"/>
        <path class="cls-2" d="M193,1080.47v-.16c0-15.89,12.26-29.2,29.6-29.2s29.44,13.15,29.44,29.04v.16c0,15.89-12.26,29.2-29.6,29.2s-29.44-13.15-29.44-29.04Zm48.63,0v-.16c0-10.97-7.98-20.08-19.2-20.08s-19.03,8.95-19.03,19.92v.16c0,10.97,7.98,20,19.2,20s19.03-8.87,19.03-19.84Z"/>
        <path class="cls-2" d="M303.66,1056.6c0-2.74,2.18-4.92,5-4.92s4.92,2.18,4.92,4.92v42.91h25.57c2.5,0,4.52,2.02,4.52,4.52s-2.02,4.52-4.52,4.52h-30.49c-2.82,0-5-2.18-5-5v-46.94Z"/>
        <path class="cls-2" d="M389.64,1084.58v-27.99c0-2.74,2.18-4.92,5-4.92s4.92,2.18,4.92,4.92v27.59c0,10.48,5.4,16.05,14.28,16.05s14.2-5.24,14.2-15.65v-27.99c0-2.74,2.18-4.92,5-4.92s4.92,2.18,4.92,4.92v27.5c0,16.86-9.52,25.33-24.28,25.33s-24.04-8.47-24.04-24.84Z"/>
        <path class="cls-2" d="M504.79,1061.27h-13.71c-2.58,0-4.6-2.1-4.6-4.6s2.02-4.6,4.6-4.6h37.5c2.5,0,4.52,2.1,4.52,4.6s-2.02,4.6-4.52,4.6h-13.79v42.75c0,2.74-2.26,4.92-5,4.92s-5-2.18-5-4.92v-42.75Z"/>
        <path class="cls-2" d="M582.32,1056.6c0-2.74,2.18-4.92,5-4.92s4.92,2.18,4.92,4.92v47.43c0,2.74-2.18,4.92-4.92,4.92s-5-2.18-5-4.92v-47.43Z"/>
        <path class="cls-2" d="M643.96,1080.47v-.16c0-15.89,12.26-29.2,29.6-29.2s29.44,13.15,29.44,29.04v.16c0,15.89-12.26,29.2-29.6,29.2s-29.44-13.15-29.44-29.04Zm48.63,0v-.16c0-10.97-7.98-20.08-19.2-20.08s-19.03,8.95-19.03,19.92v.16c0,10.97,7.98,20,19.2,20s19.03-8.87,19.03-19.84Z"/>
        <path class="cls-2" d="M754.62,1056.76c0-2.74,2.18-5,5-5h1.05c2.42,0,3.79,1.21,5.16,2.9l28.23,36.54v-34.68c0-2.66,2.18-4.84,4.84-4.84s4.92,2.18,4.92,4.84v47.43c0,2.74-2.1,4.92-4.84,4.92h-.4c-2.34,0-3.79-1.21-5.16-2.99l-29.04-37.58v35.81c0,2.66-2.18,4.84-4.84,4.84s-4.92-2.18-4.92-4.84v-47.34Z"/>
        <path class="cls-2" d="M856.91,1102.25c-1.13-.81-1.94-2.18-1.94-3.79,0-2.58,2.1-4.6,4.68-4.6,1.37,0,2.26,.4,2.9,.89,4.68,3.71,9.68,5.81,15.81,5.81s10-2.9,10-7.1v-.16c0-4.03-2.26-6.21-12.74-8.63-12.02-2.9-18.79-6.45-18.79-16.86v-.16c0-9.68,8.07-16.37,19.28-16.37,7.1,0,12.82,1.85,17.91,5.24,1.13,.65,2.18,2.02,2.18,3.95,0,2.58-2.1,4.6-4.68,4.6-.97,0-1.78-.24-2.58-.73-4.36-2.82-8.55-4.28-12.98-4.28-5.81,0-9.2,2.98-9.2,6.69v.16c0,4.36,2.58,6.29,13.47,8.87,11.94,2.9,18.07,7.18,18.07,16.53v.16c0,10.57-8.31,16.86-20.16,16.86-7.66,0-14.92-2.42-21.21-7.1Z"/>
      </g>
    </g>
  </g>
</svg>